<svg width="22" height="22" viewBox="0 0 22 22" fill="none" xmlns="http://www.w3.org/2000/svg">
<path d="M9.554 5.24L6.171 1.335C5.781 0.885 5.066 0.887 4.613 1.341L1.831 4.128C1.003 4.957 0.766 6.188 1.245 7.175C4.10662 13.1 8.88505 17.8851 14.806 20.755C15.792 21.234 17.022 20.997 17.85 20.168L20.658 17.355C21.113 16.9 21.114 16.181 20.66 15.791L16.74 12.426C16.33 12.074 15.693 12.12 15.282 12.532L13.918 13.898C13.8482 13.9712 13.7562 14.0194 13.6564 14.0353C13.5565 14.0512 13.4541 14.0339 13.365 13.986C11.1354 12.7021 9.28599 10.8502 8.005 8.619C7.95703 8.52975 7.93966 8.42723 7.95555 8.32716C7.97145 8.22708 8.01973 8.13499 8.093 8.065L9.453 6.704C9.865 6.29 9.91 5.65 9.554 5.239V5.24Z" stroke="black" stroke-width="2" stroke-linecap="round" stroke-linejoin="round"/>
</svg>
